<?xml version="1.0" encoding="iso-8859-1"?>
<!-- Uploaded to: SVG Repo, www.svgrepo.com, Generator: SVG Repo Mixer Tools -->
<!DOCTYPE svg PUBLIC "-//W3C//DTD SVG 1.1//EN" "http://www.w3.org/Graphics/SVG/1.1/DTD/svg11.dtd">
<svg fill="#000000" version="1.1" id="Capa_1" xmlns="http://www.w3.org/2000/svg" xmlns:xlink="http://www.w3.org/1999/xlink" 
	 width="800px" height="800px" viewBox="0 0 381.051 381.051"
	 xml:space="preserve">
<g>
	<path d="M366.928,56.035H14.124C6.324,56.035,0,62.358,0,70.158v240.733c0,7.799,6.324,14.124,14.124,14.124h352.804
		c7.799,0,14.123-6.325,14.123-14.124V70.158C381.051,62.358,374.727,56.035,366.928,56.035z M28.247,96.901l95.947,65.465
		L28.247,273.039V96.901L28.247,96.901z M190.529,173.428L59.88,84.281h261.29L190.529,173.428z M147.69,178.395l34.875,23.799
		c2.407,1.634,5.187,2.454,7.965,2.454c2.781,0,5.559-0.82,7.958-2.454l34.881-23.799L336,296.767H45.068L147.69,178.395z
		 M256.863,162.366l95.941-65.465v176.123L256.863,162.366z"/>
</g>
</svg>