<?xml version="1.0" encoding="iso-8859-1"?>
<!-- Uploaded to: SVG Repo, www.svgrepo.com, Generator: SVG Repo Mixer Tools -->
<svg version="1.1" id="Layer_1" xmlns="http://www.w3.org/2000/svg" xmlns:xlink="http://www.w3.org/1999/xlink" 
	 viewBox="0 0 511.999 511.999" xml:space="preserve">
<polyline style="fill:#ACE3E5;" points="209.805,83.778 141.288,55.196 105.915,139.99 202.186,160.759 209.805,83.778 "/>
<polyline style="fill:#C3F6F9;" points="309.692,468.105 324.706,477.085 502.838,179.34 244.944,25.056 176.176,139.99 "/>
<polyline style="fill:#EAA0E3;" points="309.692,354.857 348.395,378.007 460.947,189.871 255.462,66.947 211.763,139.99 "/>
<path style="fill:#EC589B;" d="M355.014,215.499c11.442-11.442,28.596-12.84,38.314-3.121c12.148,12.148,10.401,33.59-3.902,47.892
	c-17.878,17.878-56.542,14.17-84.357,5.175c-8.996-27.815-12.704-66.479,5.175-84.357c14.302-14.302,35.745-16.049,47.892-3.902
	C367.852,186.904,366.454,204.057,355.014,215.499z"/>
<rect x="9.162" y="139.99" style="fill:#C3F6F9;" width="300.53" height="346.953"/>
<rect x="39.704" y="170.532" style="fill:#F4C063;" width="239.446" height="219.24"/>
<path style="fill:#EC589B;" d="M208.893,389.768v-5.728c0-28.572-23.162-51.734-51.734-51.734l0,0
	c-28.572,0-51.734,23.162-51.734,51.734v5.728"/>
<circle style="fill:#F9DCA4;" cx="157.509" cy="269.743" r="62.561"/>
<path style="fill:#E7C080;" d="M191.585,269.745c0-29.651-20.634-54.466-48.321-60.915c4.578-1.067,9.34-1.648,14.242-1.648
	c34.552,0,62.561,28.01,62.561,62.561s-28.01,62.563-62.561,62.563c-4.901,0-9.665-0.582-14.242-1.648
	C170.951,324.209,191.585,299.395,191.585,269.745z"/>
<g>
	<path style="fill:#6D807E;" d="M94.944,269.745c0,0-10.092,75.169,10.473,114.295c0-14.289,5.787-27.225,15.15-36.588
		c9.362-9.362,22.299-15.15,36.588-15.15C122.769,332.118,94.944,304.174,94.944,269.745z"/>
	<path style="fill:#6D807E;" d="M94.944,269.745c69.436,7.117,106.535-44.489,106.535-44.489
		c-11.302-11.171-26.833-18.07-43.976-18.07C122.955,207.184,94.944,235.195,94.944,269.745z"/>
</g>
<path d="M279.151,161.37H39.704c-5.061,0-9.162,4.102-9.162,9.162v153.93c0,5.06,4.101,9.162,9.162,9.162s9.162-4.102,9.162-9.162
	V179.695h221.121v200.911h-52.036c-1.104-19.751-11.662-37.012-27.213-47.332c22.856-12.007,38.49-35.969,38.49-63.53
	c0-39.549-32.175-71.724-71.724-71.724c-9.678,0-19.071,1.897-27.921,5.64c-4.659,1.972-6.841,7.347-4.868,12.008
	c1.971,4.661,7.347,6.841,12.008,4.87c6.577-2.782,13.569-4.193,20.783-4.193c11.579,0,22.3,3.716,31.058,10.003
	c-11.269,11.972-39.588,36.117-83.778,34.865c1.284-8.023,4.377-15.626,9.138-22.334c2.928-4.127,1.958-9.847-2.168-12.775
	c-4.127-2.93-9.848-1.957-12.775,2.168c-8.5,11.977-13.046,26.062-13.187,40.773c-0.891,6.962-8.444,70.738,7.982,111.56H48.867
	v-25.602c0-5.06-4.101-9.163-9.162-9.163s-9.162,4.102-9.162,9.163v34.765c0,5.06,4.101,9.163,9.162,9.163h239.446
	c5.061,0,9.162-4.102,9.162-9.163V170.532C288.313,165.472,284.212,161.37,279.151,161.37z M123.885,333.076
	c-7.715,5.054-14.221,11.804-18.976,19.725c-2.298-12.463-3.146-25.852-3.256-38.128
	C107.728,322.207,115.285,328.491,123.885,333.076z M157.16,341.469c22.317,0,40.664,17.265,42.42,39.137h-84.842
	C116.494,358.733,134.843,341.469,157.16,341.469z M136.042,276.558c0.023,0.055,0.034,0.114,0.059,0.17
	c1.45,3.272,4.782,5.451,8.365,5.451c4.498,0,8.388-3.383,9.059-7.815c0.161-1.068,0.126-2.084-0.059-3.041
	c23.188-8.853,39.268-22.845,47.944-31.923c5.979,8.625,9.495,19.08,9.495,30.345c0,29.445-23.954,53.399-53.399,53.399
	c-26.096,0-47.865-18.821-52.483-43.598C116.249,279.806,126.594,278.66,136.042,276.558z"/>
<path d="M511.723,177.107c-0.591-2.357-2.096-4.382-4.182-5.629L249.647,17.193c-4.341-2.596-9.969-1.183-12.566,3.158
	l-31.064,51.92l-61.203-25.532c-4.67-1.946-10.035,0.258-11.985,4.928l-33.02,79.16H9.162C4.101,130.828,0,134.93,0,139.99v346.953
	c0,5.06,4.101,9.162,9.162,9.162h300.53c5.061,0,9.163-4.102,9.163-9.162v-2.683l1.148,0.688c1.473,0.882,3.093,1.3,4.695,1.3
	c3.116,0,6.155-1.591,7.871-4.459L510.7,184.045C511.947,181.959,512.315,179.464,511.723,177.107z M153.385,130.828l8.296-19.89
	l16.968,7.076l-7.667,12.814H153.385z M146.216,67.179l50.295,20.981l-8.354,13.964l-27.878-11.625
	c-4.666-1.947-10.034,0.259-11.983,4.929l-14.765,35.4h-13.866L146.216,67.179z M18.325,477.781V149.153h87.524
	c0.021,0,0.04,0.002,0.061,0.002c0.013,0,0.027-0.002,0.04-0.002h33.632c0.016,0,0.033,0.002,0.049,0.002
	c0.011,0,0.022-0.002,0.033-0.002H300.53v328.628H18.325z M348.54,221.984c3.582,3.577,9.384,3.572,12.957-0.006
	c3.995-3.999,8.989-6.428,14.065-6.843c4.51-0.364,8.522,0.952,11.282,3.714c8.553,8.561,6.805,24.24-3.892,34.945
	c-8.961,8.957-31.977,13.933-64.098,6.037v-74.227c4.983-4.215,10.886-6.769,16.886-7.257c6.309-0.512,11.967,1.374,15.915,5.325
	c2.767,2.763,4.088,6.768,3.72,11.277c-0.414,5.074-2.843,10.073-6.843,14.075c-1.788,1.79-2.682,4.135-2.68,6.481
	C345.852,217.851,346.75,220.195,348.54,221.984z M321.547,464.52l-2.693-1.61v-91.895l24.835,14.857
	c1.473,0.881,3.094,1.3,4.696,1.3c3.116,0,6.155-1.591,7.871-4.459l83.698-139.905c2.597-4.343,1.184-9.969-3.159-12.567
	c-4.341-2.597-9.968-1.184-12.567,3.158L345.235,365.44l-26.381-15.78v-71.07c9.947,2.129,20.424,3.449,30.588,3.449
	c18.198,0,35.354-4.182,46.468-15.288c17.836-17.851,19.585-45.15,3.895-60.856c-6.632-6.631-15.763-9.83-25.733-9.024
	c-0.159,0.013-0.316,0.027-0.475,0.042c0.016-0.158,0.028-0.315,0.042-0.473c0.812-9.964-2.397-19.102-9.027-25.725
	c-7.805-7.814-18.577-11.594-30.361-10.632c-5.289,0.431-10.488,1.818-15.398,4.04V139.99c0-5.06-4.101-9.162-9.162-9.162h-81.77
	l30.698-51.314L448.377,193.03l-9.739,16.279c-2.597,4.343-1.184,9.969,3.159,12.567c1.473,0.882,3.094,1.301,4.696,1.301
	c3.116,0,6.155-1.591,7.871-4.459l14.443-24.141c1.247-2.085,1.615-4.581,1.023-6.938c-0.591-2.357-2.096-4.381-4.182-5.628
	L260.163,59.087c-4.341-2.596-9.968-1.184-12.567,3.158l-41.031,68.586h-14.232l55.767-93.205l242.168,144.876L321.547,464.52z"/>
<path d="M191.828,282.179c4.426,0,8.291-3.297,9.034-7.649c1.421-8.332-8.805-13.955-15.124-8.359
	C179.559,271.642,183.585,282.179,191.828,282.179z"/>
</svg>